<svg width="15" height="15" fill="none" xmlns="http://www.w3.org/2000/svg"><g clip-path="url(#a)"><path d="M7.49 3.649a3.834 3.834 0 00-3.839 3.84 3.834 3.834 0 003.84 3.84 3.834 3.834 0 003.839-3.84 3.834 3.834 0 00-3.84-3.84zm0 6.336A2.5 2.5 0 014.996 7.49 2.499 2.499 0 017.49 4.992 2.499 2.499 0 019.987 7.49 2.5 2.5 0 017.49 9.985zm4.892-6.493a.894.894 0 01-.895.895.896.896 0 11.896-.896zm2.543.909c-.057-1.2-.33-2.263-1.21-3.139-.875-.875-1.937-1.15-3.137-1.21-1.236-.07-4.942-.07-6.178 0C3.204.11 2.14.385 1.262 1.26.383 2.135.112 3.198.052 4.397c-.07 1.237-.07 4.943 0 6.18.057 1.2.331 2.263 1.21 3.138.879.876 1.938 1.15 3.138 1.21 1.236.07 4.942.07 6.178 0 1.2-.057 2.262-.33 3.138-1.21.875-.875 1.149-1.938 1.21-3.138.07-1.237.07-4.94 0-6.176zm-1.597 7.503a2.527 2.527 0 01-1.423 1.424c-.986.39-3.325.3-4.414.3-1.09 0-3.432.087-4.414-.3a2.527 2.527 0 01-1.424-1.424c-.39-.986-.3-3.326-.3-4.415 0-1.09-.087-3.432.3-4.415.26-.655.765-1.16 1.424-1.424.985-.39 3.324-.3 4.414-.3 1.089 0 3.431-.088 4.414.3.655.26 1.159.766 1.423 1.424.39.986.3 3.325.3 4.415 0 1.09.09 3.432-.3 4.415z" fill="#FDF0D5"/></g><defs><clipPath id="a"><path fill="#fff" d="M0 0H14.978V14.978H0z"/></clipPath></defs></svg>