<svg width="15" height="12" fill="none" xmlns="http://www.w3.org/2000/svg"><g clip-path="url(#a)"><path d="M14.676 1.737c-.173-.684-.68-1.222-1.325-1.405C12.18 0 7.494 0 7.494 0S2.807 0 1.638.332C.993.515.486 1.053.313 1.737 0 2.977 0 5.563 0 5.563s0 2.586.313 3.825c.173.684.68 1.2 1.325 1.383 1.17.332 5.856.332 5.856.332s4.688 0 5.857-.332a1.906 1.906 0 001.325-1.383c.313-1.24.313-3.825.313-3.825s0-2.586-.313-3.826zM5.96 7.911V3.215L9.88 5.563 5.961 7.91z" fill="#FDF0D5"/></g><defs><clipPath id="a"><path fill="#fff" d="M0 0H14.989V11.103H0z"/></clipPath></defs></svg>