<svg width="199" height="39" fill="none" xmlns="http://www.w3.org/2000/svg"><path d="M0 31.52v-.4h.16c.96 0 1.733-.293 2.32-.88.587-.587.88-1.36.88-2.32V5.12c0-.96-.293-1.733-.88-2.32-.587-.587-1.36-.88-2.32-.88H0v-.4h12.28v.4h-.16c-.96 0-1.733.293-2.32.88-.587.587-.88 1.36-.88 2.32v9.92l10.24-9.28c1.093-.987 1.64-1.867 1.64-2.64 0-.8-.613-1.2-1.84-1.2h-.04v-.4h8.48v.4c-.533.027-1.173.147-1.92.36-.72.213-1.44.493-2.16.84-.72.32-1.333.707-1.84 1.16L13 12.08l14.2 17.04c.48.587 1 1.067 1.56 1.44s1.107.56 1.64.56v.4H18.56v-.4c1.12 0 1.813-.213 2.08-.64.293-.453.147-1.027-.44-1.72L8.92 15.24v12.68c0 .96.293 1.733.88 2.32.587.587 1.36.88 2.32.88h.16v.4H0zm34.336.56c-.933 0-1.733-.333-2.4-1-.667-.667-1-1.467-1-2.4 0-.987.347-1.8 1.04-2.44.693-.64 1.48-.96 2.36-.96.88 0 1.667.32 2.36.96.693.64 1.04 1.453 1.04 2.44 0 .933-.333 1.733-1 2.4-.667.667-1.467 1-2.4 1zM47.57 39l-.04-.36c1.12-.107 2.013-1.027 2.68-2.76.666-1.733 1-4.013 1-6.84V5.12c0-.96-.294-1.733-.88-2.32-.587-.587-1.36-.88-2.32-.88h-.08v-.4h12.56v.4h-.04c-.96 0-1.734.293-2.32.88-.587.587-.88 1.36-.88 2.32v23.92c0 1.813-.414 3.44-1.24 4.88-.8 1.44-1.934 2.6-3.4 3.48-1.44.88-3.12 1.413-5.04 1.6zm23.85-6.92c-2.186 0-4.106-.44-5.76-1.32a9.45 9.45 0 01-3.8-3.72c-.906-1.6-1.36-3.493-1.36-5.68s.454-4.08 1.36-5.68a9.45 9.45 0 013.8-3.72c1.654-.88 3.574-1.32 5.76-1.32 2.187 0 4.094.44 5.72 1.32a9.448 9.448 0 013.8 3.72c.907 1.6 1.36 3.493 1.36 5.68s-.453 4.08-1.36 5.68a9.448 9.448 0 01-3.8 3.72c-1.626.88-3.533 1.32-5.72 1.32zm-.04-.52c.934 0 1.734-.467 2.4-1.4.667-.933 1.187-2.173 1.56-3.72.374-1.573.56-3.28.56-5.12 0-2-.2-3.76-.6-5.28-.373-1.547-.906-2.747-1.6-3.6-.666-.88-1.426-1.32-2.28-1.32-.906 0-1.706.467-2.4 1.4-.666.933-1.186 2.173-1.56 3.72-.373 1.547-.56 3.24-.56 5.08 0 2.027.2 3.813.6 5.36.4 1.547.934 2.747 1.6 3.6.694.853 1.454 1.28 2.28 1.28zm11.237-.04v-.4c.933 0 1.627-.187 2.08-.56.48-.4.787-.907.92-1.52.16-.613.24-1.28.24-2V5.12c0-.96-.306-1.733-.92-2.32-.587-.587-1.36-.88-2.32-.88v-.4h4.08c1.36 0 2.4-.147 3.12-.44.667-.293 1.134-.653 1.4-1.08h.4v15.2a7.901 7.901 0 013.16-3.32c1.387-.827 2.867-1.24 4.44-1.24 1.254 0 2.32.293 3.2.88.88.56 1.547 1.32 2 2.28.48.96.72 2.04.72 3.24v10.88c0 .987.294 1.773.88 2.36.614.56 1.4.84 2.36.84v.4h-12.2v-.4c.96 0 1.733-.28 2.32-.84.614-.587.92-1.373.92-2.36V16.64c0-.587-.08-1.213-.24-1.88-.16-.693-.453-1.28-.88-1.76-.4-.507-.973-.76-1.72-.76-.693 0-1.36.213-2 .64-.613.4-1.173.907-1.68 1.52a12.763 12.763 0 00-1.28 1.84v10.8c0 .72.067 1.387.2 2 .16.613.467 1.12.92 1.52.48.373 1.187.56 2.12.56v.4h-12.24zm25.279 0v-.4h.04c.96 0 1.734-.293 2.32-.88.587-.587.88-1.36.88-2.32V14.8c0-1.013-.213-1.8-.64-2.36-.4-.56-1.266-.84-2.6-.84v-.4h3.96c1.36 0 2.4-.147 3.12-.44.667-.293 1.134-.653 1.4-1.08h.4l.04 5.6c.694-1.387 1.747-2.507 3.16-3.36 1.414-.853 2.907-1.28 4.48-1.28 1.787 0 3.214.587 4.28 1.76 1.094 1.173 1.64 2.72 1.64 4.64v10.88c0 .96.294 1.733.88 2.32.587.587 1.36.88 2.32.88h.04v.4h-12.2v-.4h.04c.96 0 1.734-.293 2.32-.88.587-.587.88-1.36.88-2.32V16.64c0-1.333-.266-2.4-.8-3.2-.506-.8-1.186-1.2-2.04-1.2-.826 0-1.693.36-2.6 1.08-.88.693-1.653 1.64-2.32 2.84v11.76c0 .96.294 1.733.88 2.32.587.587 1.36.88 2.32.88h.04v.4h-12.24zm32.959.56c-.693 0-1.213-.027-1.56-.08-.346-.053-.68-.12-1-.2a7.901 7.901 0 00-1.2-.2c-.506-.053-1.28-.08-2.32-.08l-.96-7.52h.52c.427 2.507 1.227 4.4 2.4 5.68 1.174 1.253 2.454 1.88 3.84 1.88 1.36 0 2.387-.28 3.08-.84.72-.56 1.08-1.32 1.08-2.28 0-.613-.16-1.147-.48-1.6-.293-.48-.813-.96-1.56-1.44-.746-.507-1.76-1.107-3.04-1.8l-1.16-.64c-1.466-.827-2.56-1.787-3.28-2.88-.693-1.12-1.04-2.32-1.04-3.6 0-1.813.654-3.24 1.96-4.28 1.334-1.04 3.107-1.56 5.32-1.56.56 0 1.014.027 1.36.08.347.053.68.12 1 .2.32.08.72.147 1.2.2.48.053 1.12.08 1.92.08l.56 6.44h-.48c-.16-1.253-.52-2.36-1.08-3.32-.533-.987-1.173-1.747-1.92-2.28-.746-.56-1.506-.84-2.28-.84-1.013 0-1.826.267-2.44.8-.586.533-.88 1.28-.88 2.24 0 .72.227 1.387.68 2 .48.587 1.387 1.227 2.72 1.92l1.2.6c1.867.96 3.227 1.96 4.08 3 .854 1.04 1.28 2.373 1.28 4 0 4.16-2.506 6.267-7.52 6.32zm20.37 0c-2.186 0-4.106-.44-5.76-1.32a9.455 9.455 0 01-3.8-3.72c-.906-1.6-1.36-3.493-1.36-5.68s.454-4.08 1.36-5.68a9.455 9.455 0 013.8-3.72c1.654-.88 3.574-1.32 5.76-1.32 2.187 0 4.094.44 5.72 1.32a9.443 9.443 0 013.8 3.72c.907 1.6 1.36 3.493 1.36 5.68s-.453 4.08-1.36 5.68a9.443 9.443 0 01-3.8 3.72c-1.626.88-3.533 1.32-5.72 1.32zm-.04-.52c.934 0 1.734-.467 2.4-1.4.667-.933 1.187-2.173 1.56-3.72.374-1.573.56-3.28.56-5.12 0-2-.2-3.76-.6-5.28-.373-1.547-.906-2.747-1.6-3.6-.666-.88-1.426-1.32-2.28-1.32-.906 0-1.706.467-2.4 1.4-.666.933-1.186 2.173-1.56 3.72-.373 1.547-.56 3.24-.56 5.08 0 2.027.2 3.813.6 5.36.4 1.547.934 2.747 1.6 3.6.694.853 1.454 1.28 2.28 1.28zm11.477-.04v-.4h.04c.96 0 1.733-.293 2.32-.88.587-.587.88-1.36.88-2.32V14.8c0-1.013-.213-1.8-.64-2.36-.4-.56-1.267-.84-2.6-.84v-.4h3.96c1.36 0 2.4-.147 3.12-.44.667-.293 1.133-.653 1.4-1.08h.4l.04 5.6c.693-1.387 1.747-2.507 3.16-3.36 1.413-.853 2.907-1.28 4.48-1.28 1.787 0 3.213.587 4.28 1.76 1.093 1.173 1.64 2.72 1.64 4.64v10.88c0 .96.293 1.733.88 2.32.587.587 1.36.88 2.32.88h.04v.4h-12.2v-.4h.04c.96 0 1.733-.293 2.32-.88.587-.587.88-1.36.88-2.32V16.64c0-1.333-.267-2.4-.8-3.2-.507-.8-1.187-1.2-2.04-1.2-.827 0-1.693.36-2.6 1.08-.88.693-1.653 1.64-2.32 2.84v11.76c0 .96.293 1.733.88 2.32.587.587 1.36.88 2.32.88h.04v.4h-12.24z" fill="#fff"/></svg>