<svg width="159" height="32" fill="none" xmlns="http://www.w3.org/2000/svg"><path d="M0 25.216v-.32h.128c.768 0 1.387-.235 1.856-.704.47-.47.704-1.088.704-1.856V4.096c0-.768-.235-1.387-.704-1.856-.47-.47-1.088-.704-1.856-.704H0v-.32h9.824v.32h-.128c-.768 0-1.387.234-1.856.704-.47.47-.704 1.088-.704 1.856v7.936l8.192-7.424c.875-.79 1.312-1.494 1.312-2.112 0-.64-.49-.96-1.472-.96h-.032v-.32h6.784v.32c-.427.021-.939.117-1.536.288-.576.17-1.152.394-1.728.672a5.594 5.594 0 00-1.472.928L10.4 9.664l11.36 13.632c.384.47.8.853 1.248 1.152.448.299.885.448 1.312.448v.32h-9.472v-.32c.896 0 1.45-.17 1.664-.512.235-.363.117-.822-.352-1.376L7.136 12.192v10.144c0 .768.235 1.387.704 1.856.47.47 1.088.704 1.856.704h.128v.32H0zm27.469.448a2.618 2.618 0 01-1.92-.8 2.618 2.618 0 01-.8-1.92c0-.79.277-1.44.832-1.952.554-.512 1.184-.768 1.888-.768s1.333.256 1.888.768c.554.512.832 1.162.832 1.952 0 .747-.267 1.387-.8 1.92-.534.533-1.174.8-1.92.8zM38.056 31.2l-.032-.288c.896-.085 1.61-.822 2.144-2.208.533-1.387.8-3.21.8-5.472V4.096c0-.768-.235-1.387-.704-1.856-.47-.47-1.088-.704-1.856-.704h-.064v-.32h10.048v.32h-.032c-.768 0-1.387.234-1.856.704-.47.47-.704 1.088-.704 1.856v19.136c0 1.45-.33 2.752-.992 3.904-.64 1.152-1.547 2.08-2.72 2.784-1.152.704-2.496 1.13-4.032 1.28zm19.08-5.536c-1.749 0-3.285-.352-4.608-1.056a7.559 7.559 0 01-3.04-2.976c-.725-1.28-1.087-2.795-1.087-4.544 0-1.75.362-3.264 1.087-4.544a7.559 7.559 0 013.04-2.976c1.323-.704 2.86-1.056 4.608-1.056 1.75 0 3.275.352 4.576 1.056a7.559 7.559 0 013.04 2.976c.726 1.28 1.089 2.794 1.089 4.544 0 1.75-.363 3.264-1.088 4.544a7.559 7.559 0 01-3.04 2.976c-1.302.704-2.827 1.056-4.577 1.056zm-.032-.416c.747 0 1.387-.373 1.92-1.12.534-.747.95-1.739 1.248-2.976.3-1.259.449-2.624.449-4.096 0-1.6-.16-3.008-.48-4.224-.3-1.238-.726-2.198-1.28-2.88-.534-.704-1.142-1.056-1.825-1.056-.725 0-1.365.373-1.92 1.12-.533.746-.949 1.739-1.248 2.976-.298 1.237-.448 2.592-.448 4.064 0 1.621.16 3.05.48 4.288.32 1.237.747 2.197 1.28 2.88.555.683 1.163 1.024 1.825 1.024zm8.99-.032v-.32c.746 0 1.301-.15 1.664-.448.384-.32.63-.726.736-1.216.128-.49.192-1.024.192-1.6V4.096c0-.768-.246-1.387-.736-1.856-.47-.47-1.088-.704-1.856-.704v-.32h3.264c1.088 0 1.92-.118 2.496-.352.533-.235.906-.523 1.12-.864h.32v12.16a6.32 6.32 0 012.528-2.656 6.822 6.822 0 013.552-.992c1.002 0 1.856.234 2.56.704a4.284 4.284 0 011.6 1.824c.384.768.576 1.632.576 2.592v8.704c0 .79.234 1.419.704 1.888.49.448 1.12.672 1.888.672v.32h-9.76v-.32c.768 0 1.386-.224 1.856-.672.49-.47.736-1.099.736-1.888v-9.024c0-.47-.064-.97-.192-1.504a3.14 3.14 0 00-.704-1.408c-.32-.406-.779-.608-1.376-.608-.555 0-1.088.17-1.6.512-.49.32-.939.725-1.344 1.216-.406.49-.747.981-1.024 1.472v8.64c0 .576.053 1.11.16 1.6.128.49.373.896.736 1.216.384.299.95.448 1.696.448v.32h-9.792zm20.223 0v-.32h.032c.768 0 1.387-.235 1.856-.704.47-.47.704-1.088.704-1.856V11.84c0-.81-.17-1.44-.512-1.888-.32-.448-1.013-.672-2.08-.672v-.32h3.168c1.088 0 1.92-.118 2.496-.352.533-.235.907-.523 1.12-.864h.32l.032 4.48c.555-1.11 1.397-2.005 2.528-2.688 1.13-.683 2.325-1.024 3.584-1.024 1.429 0 2.571.47 3.424 1.408.875.938 1.312 2.176 1.312 3.712v8.704c0 .768.235 1.387.704 1.856.469.47 1.088.704 1.856.704h.032v.32h-9.76v-.32h.032c.768 0 1.387-.235 1.856-.704.47-.47.704-1.088.704-1.856v-9.024c0-1.067-.213-1.92-.64-2.56-.405-.64-.95-.96-1.632-.96-.661 0-1.355.288-2.08.864-.704.554-1.323 1.312-1.856 2.272v9.408c0 .768.235 1.387.704 1.856.47.47 1.088.704 1.856.704h.032v.32h-9.792zm26.367.448c-.554 0-.97-.022-1.248-.064a8.841 8.841 0 01-.8-.16 6.31 6.31 0 00-.96-.16c-.405-.043-1.024-.064-1.856-.064l-.768-6.016h.416c.342 2.005.982 3.52 1.92 4.544.939 1.003 1.963 1.504 3.072 1.504 1.088 0 1.91-.224 2.464-.672.576-.448.864-1.056.864-1.824 0-.49-.128-.918-.384-1.28-.234-.384-.65-.768-1.248-1.152-.597-.405-1.408-.886-2.432-1.44l-.928-.512c-1.173-.662-2.048-1.43-2.624-2.304a5.382 5.382 0 01-.832-2.88c0-1.45.523-2.592 1.568-3.424 1.067-.832 2.486-1.248 4.256-1.248.448 0 .811.021 1.088.064.278.042.544.096.8.16s.576.117.96.16c.384.042.896.064 1.536.064l.448 5.152h-.384c-.128-1.003-.416-1.888-.864-2.656-.426-.79-.938-1.397-1.536-1.824-.597-.448-1.205-.672-1.824-.672-.81 0-1.461.213-1.952.64-.469.427-.704 1.024-.704 1.792 0 .576.182 1.11.544 1.6.384.47 1.11.981 2.176 1.536l.96.48c1.494.768 2.582 1.568 3.264 2.4.683.832 1.024 1.898 1.024 3.2 0 3.328-2.005 5.013-6.016 5.056zm16.296 0c-1.749 0-3.285-.352-4.608-1.056a7.565 7.565 0 01-3.04-2.976c-.725-1.28-1.088-2.795-1.088-4.544 0-1.75.363-3.264 1.088-4.544a7.565 7.565 0 013.04-2.976c1.323-.704 2.859-1.056 4.608-1.056 1.75 0 3.275.352 4.576 1.056a7.553 7.553 0 013.04 2.976c.726 1.28 1.088 2.794 1.088 4.544 0 1.75-.362 3.264-1.088 4.544a7.553 7.553 0 01-3.04 2.976c-1.301.704-2.826 1.056-4.576 1.056zm-.032-.416c.747 0 1.387-.373 1.92-1.12.534-.747.95-1.739 1.248-2.976.299-1.259.448-2.624.448-4.096 0-1.6-.16-3.008-.48-4.224-.298-1.238-.725-2.198-1.28-2.88-.533-.704-1.141-1.056-1.824-1.056-.725 0-1.365.373-1.92 1.12-.533.746-.949 1.739-1.248 2.976-.298 1.237-.448 2.592-.448 4.064 0 1.621.16 3.05.48 4.288.32 1.237.747 2.197 1.28 2.88.555.683 1.163 1.024 1.824 1.024zm9.182-.032v-.32h.032c.768 0 1.386-.235 1.856-.704.469-.47.704-1.088.704-1.856V11.84c0-.81-.171-1.44-.512-1.888-.32-.448-1.014-.672-2.08-.672v-.32h3.168c1.088 0 1.92-.118 2.496-.352.533-.235.906-.523 1.12-.864h.32l.032 4.48c.554-1.11 1.397-2.005 2.528-2.688 1.13-.683 2.325-1.024 3.584-1.024 1.429 0 2.57.47 3.424 1.408.874.938 1.312 2.176 1.312 3.712v8.704c0 .768.234 1.387.704 1.856.469.47 1.088.704 1.856.704h.032v.32h-9.76v-.32h.032c.768 0 1.386-.235 1.856-.704.469-.47.704-1.088.704-1.856v-9.024c0-1.067-.214-1.92-.64-2.56-.406-.64-.95-.96-1.632-.96-.662 0-1.355.288-2.08.864-.704.554-1.323 1.312-1.856 2.272v9.408c0 .768.234 1.387.704 1.856.469.47 1.088.704 1.856.704h.032v.32h-9.792z" fill="#161616"/></svg>